<?xml version="1.0" standalone="no"?>
<!DOCTYPE svg PUBLIC "-//W3C//DTD SVG 20010904//EN"
 "http://www.w3.org/TR/2001/REC-SVG-20010904/DTD/svg10.dtd">
<svg version="1.0" xmlns="http://www.w3.org/2000/svg"
 width="180.000000pt" height="180.000000pt" viewBox="0 0 180.000000 180.000000"
 preserveAspectRatio="xMidYMid meet">
<metadata>
Created by potrace 1.14, written by Peter Selinger 2001-2017
</metadata>
<g transform="translate(0.000000,180.000000) scale(0.100000,-0.100000)"
fill="#000000" stroke="none">
<path d="M0 900 l0 -900 900 0 900 0 0 900 0 900 -900 0 -900 0 0 -900z m1282
708 c32 -6 94 -9 138 -6 76 4 79 4 64 -13 -31 -35 -103 -42 -220 -24 -64 10
-125 14 -154 10 -50 -7 -140 -56 -140 -76 0 -7 9 -5 25 5 13 9 35 16 47 15
l23 0 -25 -17 c-14 -9 -42 -32 -62 -51 -38 -33 -48 -29 -26 12 10 20 10 21 -5
8 -15 -12 -17 -11 -17 4 0 15 -8 17 -60 13 -65 -5 -106 -27 -127 -69 -15 -29
-17 -157 -3 -230 52 -266 58 -344 36 -444 -40 -186 -168 -282 -328 -245 -57
13 -138 55 -138 71 0 5 24 -3 53 -18 97 -50 229 -32 293 39 83 90 102 250 58
483 -10 53 -18 144 -18 221 -1 128 0 131 27 167 37 48 88 64 168 51 32 -6 59
-7 59 -3 0 15 54 70 84 86 60 32 124 35 248 11z m-502 7 c0 -2 -17 -9 -38 -14
-21 -6 -57 -27 -80 -47 -98 -84 -112 -180 -61 -429 25 -121 33 -187 33 -270 1
-103 -1 -113 -28 -163 -29 -51 -77 -92 -110 -92 -10 0 1 17 33 48 43 42 50 54
61 115 14 77 11 116 -32 342 -38 201 -36 301 5 382 29 56 77 101 129 120 33
12 88 17 88 8z m116 -51 c57 -27 49 -34 -28 -28 -92 8 -136 -8 -173 -64 -45
-69 -52 -151 -26 -333 20 -146 28 -299 15 -287 -3 3 -21 84 -41 180 -46 225
-51 366 -14 442 35 69 95 106 174 106 34 0 74 -7 93 -16z m584 -13 c0 -17 -60
-60 -100 -72 -46 -14 -141 -2 -205 26 -35 15 -38 18 -20 25 11 4 67 6 125 3
79 -4 115 -1 145 10 48 19 55 20 55 8z m-143 -95 c77 -1 81 -2 66 -18 -9 -10
-24 -20 -35 -24 -18 -5 -19 -12 -13 -74 14 -139 -49 -348 -165 -550 -110 -190
-122 -173 -26 36 34 76 73 169 85 206 49 148 79 376 49 366 -8 -3 -18 -38 -24
-84 -25 -176 -68 -297 -202 -574 -110 -227 -152 -360 -152 -483 -1 -68 -18
-42 -26 40 -13 122 24 243 177 580 103 228 178 441 179 510 0 7 -21 15 -47 18
-123 16 -193 33 -193 45 0 15 42 19 145 13 55 -4 137 -7 182 -7z m72 -236 c1
-71 -17 -169 -50 -270 -30 -90 -125 -288 -188 -390 -59 -95 -152 -222 -159
-215 -2 2 54 115 124 252 71 136 144 285 161 330 39 97 83 262 83 308 0 18 3
48 7 66 7 33 7 33 14 9 4 -14 7 -54 8 -90z m-931 -640 c33 0 69 8 94 20 50 24
49 24 41 5 -9 -26 -83 -57 -138 -59 -57 -1 -124 24 -143 55 -12 19 -11 19 40
-1 29 -11 77 -20 106 -20z m532 -100 c0 -11 -9 -60 -19 -108 -11 -48 -22 -111
-26 -141 -10 -71 -25 -47 -25 39 0 66 9 112 36 188 16 44 34 56 34 22z"/>
</g>
</svg>
